<svg width="20" height="20" viewBox="0 0 20 20" fill="none" xmlns="http://www.w3.org/2000/svg">
<path d="M17.9942 6.00247C17.8992 5.6503 17.7138 5.32914 17.4561 5.07094C17.1985 4.81274 16.8778 4.62652 16.5258 4.5308C15.2208 4.17247 10 4.16663 10 4.16663C10 4.16663 4.78 4.1608 3.47417 4.5033C3.12244 4.60342 2.80235 4.79228 2.54464 5.05174C2.28692 5.31121 2.10024 5.63257 2.0025 5.98497C1.65833 7.28997 1.655 9.99663 1.655 9.99663C1.655 9.99663 1.65167 12.7166 1.99333 14.0083C2.185 14.7225 2.7475 15.2866 3.4625 15.4791C4.78083 15.8375 9.9875 15.8433 9.9875 15.8433C9.9875 15.8433 15.2083 15.8491 16.5133 15.5075C16.8654 15.4119 17.1865 15.2261 17.4447 14.9684C17.703 14.7108 17.8895 14.3902 17.9858 14.0383C18.3308 12.7341 18.3333 10.0283 18.3333 10.0283C18.3333 10.0283 18.35 7.30747 17.9942 6.00247ZM8.33 12.5041L8.33417 7.50413L12.6733 10.0083L8.33 12.5041Z" fill="white"/>
</svg>
